<svg xmlns="http://www.w3.org/2000/svg" width="760" height="430" viewBox="0 0 760 430" font-family="Helvetica, Arial, sans-serif">
<rect width="760" height="430" fill="#ffffff"/>
<text x="64" y="24" font-size="15" font-weight="bold" fill="#1B365D">circuit64-on-circuit64: batch-one latency by stage</text>
<text x="64" y="42" font-size="10" fill="#333">Seed-29 checkpoints, 8 test roots, 3 warmed repetitions, device-synchronized; amortized over the initial solve and 32 edits.</text>
<rect x="64" y="58" width="506" height="302" fill="none" stroke="#999"/>
<line x1="64" y1="360.0" x2="570" y2="360.0" stroke="#eee"/>
<text x="58" y="363.5" font-size="9" text-anchor="end">0</text>
<line x1="64" y1="297.4" x2="570" y2="297.4" stroke="#eee"/>
<text x="58" y="300.9" font-size="9" text-anchor="end">20</text>
<line x1="64" y1="234.9" x2="570" y2="234.9" stroke="#eee"/>
<text x="58" y="238.4" font-size="9" text-anchor="end">40</text>
<line x1="64" y1="172.3" x2="570" y2="172.3" stroke="#eee"/>
<text x="58" y="175.8" font-size="9" text-anchor="end">60</text>
<line x1="64" y1="109.8" x2="570" y2="109.8" stroke="#eee"/>
<text x="58" y="113.3" font-size="9" text-anchor="end">80</text>
<rect x="75.2" y="354.8" width="33.7" height="5.2" fill="#1B365D"/>
<rect x="75.2" y="354.1" width="33.7" height="0.7" fill="#C25431"/>
<rect x="75.2" y="349.9" width="33.7" height="4.2" fill="#00806C"/>
<rect x="75.2" y="344.1" width="33.7" height="5.9" fill="#8264A8"/>
<rect x="75.2" y="316.1" width="33.7" height="27.9" fill="#B8860B"/>
<rect x="75.2" y="313.9" width="33.7" height="2.2" fill="#7A7A7A"/>
<rect x="75.2" y="281.0" width="33.7" height="32.9" fill="#D81B60"/>
<rect x="75.2" y="266.3" width="33.7" height="14.7" fill="#4C9BE8"/>
<rect x="75.2" y="266.0" width="33.7" height="0.3" fill="#E58F65"/>
<text x="92.1" y="374" font-size="9" text-anchor="middle">restart K1</text>
<rect x="131.5" y="354.8" width="33.7" height="5.2" fill="#1B365D"/>
<rect x="131.5" y="354.1" width="33.7" height="0.7" fill="#C25431"/>
<rect x="131.5" y="349.9" width="33.7" height="4.2" fill="#00806C"/>
<rect x="131.5" y="342.6" width="33.7" height="7.3" fill="#8264A8"/>
<rect x="131.5" y="314.7" width="33.7" height="27.9" fill="#B8860B"/>
<rect x="131.5" y="312.5" width="33.7" height="2.2" fill="#7A7A7A"/>
<rect x="131.5" y="279.7" width="33.7" height="32.8" fill="#D81B60"/>
<rect x="131.5" y="265.1" width="33.7" height="14.6" fill="#4C9BE8"/>
<rect x="131.5" y="264.7" width="33.7" height="0.3" fill="#E58F65"/>
<text x="148.3" y="374" font-size="9" text-anchor="middle">answer_only K1</text>
<rect x="187.7" y="354.8" width="33.7" height="5.2" fill="#1B365D"/>
<rect x="187.7" y="354.1" width="33.7" height="0.7" fill="#C25431"/>
<rect x="187.7" y="349.9" width="33.7" height="4.2" fill="#00806C"/>
<rect x="187.7" y="333.2" width="33.7" height="16.7" fill="#8264A8"/>
<rect x="187.7" y="305.3" width="33.7" height="27.9" fill="#B8860B"/>
<rect x="187.7" y="303.1" width="33.7" height="2.2" fill="#7A7A7A"/>
<rect x="187.7" y="270.2" width="33.7" height="32.8" fill="#D81B60"/>
<rect x="187.7" y="255.5" width="33.7" height="14.7" fill="#4C9BE8"/>
<rect x="187.7" y="255.2" width="33.7" height="0.3" fill="#E58F65"/>
<text x="204.6" y="374" font-size="9" text-anchor="middle">spatial_gate K1</text>
<rect x="243.9" y="354.8" width="33.7" height="5.2" fill="#1B365D"/>
<rect x="243.9" y="354.1" width="33.7" height="0.7" fill="#C25431"/>
<rect x="243.9" y="349.9" width="33.7" height="4.2" fill="#00806C"/>
<rect x="243.9" y="344.0" width="33.7" height="5.9" fill="#8264A8"/>
<rect x="243.9" y="288.2" width="33.7" height="55.8" fill="#B8860B"/>
<rect x="243.9" y="286.0" width="33.7" height="2.2" fill="#7A7A7A"/>
<rect x="243.9" y="253.0" width="33.7" height="33.0" fill="#D81B60"/>
<rect x="243.9" y="238.3" width="33.7" height="14.7" fill="#4C9BE8"/>
<rect x="243.9" y="237.9" width="33.7" height="0.3" fill="#E58F65"/>
<text x="260.8" y="374" font-size="9" text-anchor="middle">restart K2</text>
<rect x="300.1" y="354.8" width="33.7" height="5.2" fill="#1B365D"/>
<rect x="300.1" y="354.2" width="33.7" height="0.7" fill="#C25431"/>
<rect x="300.1" y="349.9" width="33.7" height="4.2" fill="#00806C"/>
<rect x="300.1" y="342.7" width="33.7" height="7.3" fill="#8264A8"/>
<rect x="300.1" y="287.3" width="33.7" height="55.3" fill="#B8860B"/>
<rect x="300.1" y="285.1" width="33.7" height="2.2" fill="#7A7A7A"/>
<rect x="300.1" y="252.3" width="33.7" height="32.8" fill="#D81B60"/>
<rect x="300.1" y="237.7" width="33.7" height="14.6" fill="#4C9BE8"/>
<rect x="300.1" y="237.3" width="33.7" height="0.3" fill="#E58F65"/>
<text x="317.0" y="374" font-size="9" text-anchor="middle">answer_only K2</text>
<rect x="356.4" y="354.8" width="33.7" height="5.2" fill="#1B365D"/>
<rect x="356.4" y="354.1" width="33.7" height="0.7" fill="#C25431"/>
<rect x="356.4" y="349.9" width="33.7" height="4.2" fill="#00806C"/>
<rect x="356.4" y="333.2" width="33.7" height="16.7" fill="#8264A8"/>
<rect x="356.4" y="277.4" width="33.7" height="55.8" fill="#B8860B"/>
<rect x="356.4" y="275.2" width="33.7" height="2.2" fill="#7A7A7A"/>
<rect x="356.4" y="242.4" width="33.7" height="32.8" fill="#D81B60"/>
<rect x="356.4" y="227.7" width="33.7" height="14.6" fill="#4C9BE8"/>
<rect x="356.4" y="227.4" width="33.7" height="0.3" fill="#E58F65"/>
<text x="373.2" y="374" font-size="9" text-anchor="middle">spatial_gate K2</text>
<rect x="412.6" y="354.7" width="33.7" height="5.3" fill="#1B365D"/>
<rect x="412.6" y="354.1" width="33.7" height="0.7" fill="#C25431"/>
<rect x="412.6" y="349.8" width="33.7" height="4.2" fill="#00806C"/>
<rect x="412.6" y="343.9" width="33.7" height="5.9" fill="#8264A8"/>
<rect x="412.6" y="119.3" width="33.7" height="224.6" fill="#B8860B"/>
<rect x="412.6" y="117.1" width="33.7" height="2.2" fill="#7A7A7A"/>
<rect x="412.6" y="83.8" width="33.7" height="33.3" fill="#D81B60"/>
<rect x="412.6" y="69.1" width="33.7" height="14.8" fill="#4C9BE8"/>
<rect x="412.6" y="68.7" width="33.7" height="0.4" fill="#E58F65"/>
<text x="429.4" y="374" font-size="9" text-anchor="middle">restart K8</text>
<rect x="468.8" y="354.8" width="33.7" height="5.2" fill="#1B365D"/>
<rect x="468.8" y="354.1" width="33.7" height="0.7" fill="#C25431"/>
<rect x="468.8" y="349.9" width="33.7" height="4.2" fill="#00806C"/>
<rect x="468.8" y="342.5" width="33.7" height="7.4" fill="#8264A8"/>
<rect x="468.8" y="119.7" width="33.7" height="222.8" fill="#B8860B"/>
<rect x="468.8" y="117.5" width="33.7" height="2.2" fill="#7A7A7A"/>
<rect x="468.8" y="84.4" width="33.7" height="33.1" fill="#D81B60"/>
<rect x="468.8" y="69.7" width="33.7" height="14.7" fill="#4C9BE8"/>
<rect x="468.8" y="69.3" width="33.7" height="0.4" fill="#E58F65"/>
<text x="485.7" y="374" font-size="9" text-anchor="middle">answer_only K8</text>
<rect x="525.0" y="354.8" width="33.7" height="5.2" fill="#1B365D"/>
<rect x="525.0" y="354.1" width="33.7" height="0.7" fill="#C25431"/>
<rect x="525.0" y="349.8" width="33.7" height="4.3" fill="#00806C"/>
<rect x="525.0" y="332.9" width="33.7" height="16.9" fill="#8264A8"/>
<rect x="525.0" y="108.4" width="33.7" height="224.5" fill="#B8860B"/>
<rect x="525.0" y="106.2" width="33.7" height="2.2" fill="#7A7A7A"/>
<rect x="525.0" y="73.1" width="33.7" height="33.1" fill="#D81B60"/>
<rect x="525.0" y="58.4" width="33.7" height="14.7" fill="#4C9BE8"/>
<rect x="525.0" y="58.0" width="33.7" height="0.4" fill="#E58F65"/>
<text x="541.9" y="374" font-size="9" text-anchor="middle">spatial_gate K8</text>
<rect x="584" y="64" width="12" height="12" fill="#1B365D"/>
<text x="602" y="73.5" font-size="9">edit_and_validation</text>
<rect x="584" y="80" width="12" height="12" fill="#C25431"/>
<text x="602" y="89.5" font-size="9">encoder</text>
<rect x="584" y="96" width="12" height="12" fill="#00806C"/>
<text x="602" y="105.5" font-size="9">fresh</text>
<rect x="584" y="112" width="12" height="12" fill="#8264A8"/>
<text x="602" y="121.5" font-size="9">adapter</text>
<rect x="584" y="128" width="12" height="12" fill="#B8860B"/>
<text x="602" y="137.5" font-size="9">core</text>
<rect x="584" y="144" width="12" height="12" fill="#7A7A7A"/>
<text x="602" y="153.5" font-size="9">decoder</text>
<rect x="584" y="160" width="12" height="12" fill="#D81B60"/>
<text x="602" y="169.5" font-size="9">copy</text>
<rect x="584" y="176" width="12" height="12" fill="#4C9BE8"/>
<text x="602" y="185.5" font-size="9">transfer_in</text>
<rect x="584" y="192" width="12" height="12" fill="#E58F65"/>
<text x="602" y="201.5" font-size="9">transfer_out</text>
<text x="16" y="209.0" font-size="10" text-anchor="middle" transform="rotate(-90 16 209.0)">Milliseconds per frame (batch 1)</text>
</svg>
