<svg xmlns="http://www.w3.org/2000/svg" width="760" height="430" viewBox="0 0 760 430" font-family="Helvetica, Arial, sans-serif">
<rect width="760" height="430" fill="#ffffff"/>
<text x="64" y="24" font-size="15" font-weight="bold" fill="#1B365D">circuit64-on-circuit96: exact accuracy at each edit, K=8</text>
<text x="64" y="42" font-size="10" fill="#333">Frame-level accuracy over 256 roots and five seeds; restart is the drift reference for the edit process itself.</text>
<rect x="64" y="58" width="496" height="316" fill="none" stroke="#999"/>
<line x1="64" y1="374.0" x2="560" y2="374.0" stroke="#eee"/>
<text x="58" y="377.5" font-size="9" text-anchor="end">0</text>
<line x1="64" y1="310.8" x2="560" y2="310.8" stroke="#eee"/>
<text x="58" y="314.3" font-size="9" text-anchor="end">0.2</text>
<line x1="64" y1="247.6" x2="560" y2="247.6" stroke="#eee"/>
<text x="58" y="251.1" font-size="9" text-anchor="end">0.4</text>
<line x1="64" y1="184.4" x2="560" y2="184.4" stroke="#eee"/>
<text x="58" y="187.9" font-size="9" text-anchor="end">0.6</text>
<line x1="64" y1="121.2" x2="560" y2="121.2" stroke="#eee"/>
<text x="58" y="124.7" font-size="9" text-anchor="end">0.8</text>
<line x1="64" y1="58.0" x2="560" y2="58.0" stroke="#eee"/>
<text x="58" y="61.5" font-size="9" text-anchor="end">1</text>
<line x1="208.0" y1="374" x2="208.0" y2="378" stroke="#999"/>
<text x="208.0" y="389" font-size="9" text-anchor="middle">10</text>
<line x1="368.0" y1="374" x2="368.0" y2="378" stroke="#999"/>
<text x="368.0" y="389" font-size="9" text-anchor="middle">20</text>
<line x1="528.0" y1="374" x2="528.0" y2="378" stroke="#999"/>
<text x="528.0" y="389" font-size="9" text-anchor="middle">30</text>
<text x="312.0" y="416" font-size="10" text-anchor="middle">Edit index (frame)</text>
<text x="16" y="216.0" font-size="10" text-anchor="middle" transform="rotate(-90 16 216.0)">Exact accuracy at this frame</text>
<path d="M64.0,231.8 L80.0,229.1 L96.0,229.1 L112.0,231.6 L128.0,234.5 L144.0,229.3 L160.0,226.1 L176.0,218.2 L192.0,217.7 L208.0,223.9 L224.0,225.1 L240.0,222.7 L256.0,228.6 L272.0,230.1 L288.0,229.6 L304.0,233.8 L320.0,236.7 L336.0,229.8 L352.0,235.5 L368.0,236.2 L384.0,236.2 L400.0,238.7 L416.0,236.5 L432.0,232.0 L448.0,232.3 L464.0,226.9 L480.0,230.6 L496.0,228.1 L512.0,226.1 L528.0,221.9 L544.0,232.8 L560.0,224.6" fill="none" stroke="#1B365D" stroke-width="1.8" stroke-dasharray=""/>
<circle cx="64.0" cy="231.8" r="1.6" fill="#1B365D"/>
<circle cx="80.0" cy="229.1" r="1.6" fill="#1B365D"/>
<circle cx="96.0" cy="229.1" r="1.6" fill="#1B365D"/>
<circle cx="112.0" cy="231.6" r="1.6" fill="#1B365D"/>
<circle cx="128.0" cy="234.5" r="1.6" fill="#1B365D"/>
<circle cx="144.0" cy="229.3" r="1.6" fill="#1B365D"/>
<circle cx="160.0" cy="226.1" r="1.6" fill="#1B365D"/>
<circle cx="176.0" cy="218.2" r="1.6" fill="#1B365D"/>
<circle cx="192.0" cy="217.7" r="1.6" fill="#1B365D"/>
<circle cx="208.0" cy="223.9" r="1.6" fill="#1B365D"/>
<circle cx="224.0" cy="225.1" r="1.6" fill="#1B365D"/>
<circle cx="240.0" cy="222.7" r="1.6" fill="#1B365D"/>
<circle cx="256.0" cy="228.6" r="1.6" fill="#1B365D"/>
<circle cx="272.0" cy="230.1" r="1.6" fill="#1B365D"/>
<circle cx="288.0" cy="229.6" r="1.6" fill="#1B365D"/>
<circle cx="304.0" cy="233.8" r="1.6" fill="#1B365D"/>
<circle cx="320.0" cy="236.7" r="1.6" fill="#1B365D"/>
<circle cx="336.0" cy="229.8" r="1.6" fill="#1B365D"/>
<circle cx="352.0" cy="235.5" r="1.6" fill="#1B365D"/>
<circle cx="368.0" cy="236.2" r="1.6" fill="#1B365D"/>
<circle cx="384.0" cy="236.2" r="1.6" fill="#1B365D"/>
<circle cx="400.0" cy="238.7" r="1.6" fill="#1B365D"/>
<circle cx="416.0" cy="236.5" r="1.6" fill="#1B365D"/>
<circle cx="432.0" cy="232.0" r="1.6" fill="#1B365D"/>
<circle cx="448.0" cy="232.3" r="1.6" fill="#1B365D"/>
<circle cx="464.0" cy="226.9" r="1.6" fill="#1B365D"/>
<circle cx="480.0" cy="230.6" r="1.6" fill="#1B365D"/>
<circle cx="496.0" cy="228.1" r="1.6" fill="#1B365D"/>
<circle cx="512.0" cy="226.1" r="1.6" fill="#1B365D"/>
<circle cx="528.0" cy="221.9" r="1.6" fill="#1B365D"/>
<circle cx="544.0" cy="232.8" r="1.6" fill="#1B365D"/>
<circle cx="560.0" cy="224.6" r="1.6" fill="#1B365D"/>
<line x1="574" y1="70" x2="594" y2="70" stroke="#1B365D" stroke-width="2"/>
<text x="600" y="73.5" font-size="9">restart</text>
<path d="M64.0,208.3 L80.0,214.3 L96.0,220.2 L112.0,221.9 L128.0,220.7 L144.0,218.0 L160.0,227.8 L176.0,223.7 L192.0,227.6 L208.0,226.6 L224.0,229.3 L240.0,229.1 L256.0,231.3 L272.0,231.3 L288.0,232.5 L304.0,234.0 L320.0,237.5 L336.0,234.5 L352.0,233.3 L368.0,235.5 L384.0,232.3 L400.0,229.8 L416.0,230.8 L432.0,234.5 L448.0,239.5 L464.0,234.8 L480.0,237.7 L496.0,236.2 L512.0,237.2 L528.0,236.5 L544.0,240.9 L560.0,233.5" fill="none" stroke="#C25431" stroke-width="1.8" stroke-dasharray=""/>
<circle cx="64.0" cy="208.3" r="1.6" fill="#C25431"/>
<circle cx="80.0" cy="214.3" r="1.6" fill="#C25431"/>
<circle cx="96.0" cy="220.2" r="1.6" fill="#C25431"/>
<circle cx="112.0" cy="221.9" r="1.6" fill="#C25431"/>
<circle cx="128.0" cy="220.7" r="1.6" fill="#C25431"/>
<circle cx="144.0" cy="218.0" r="1.6" fill="#C25431"/>
<circle cx="160.0" cy="227.8" r="1.6" fill="#C25431"/>
<circle cx="176.0" cy="223.7" r="1.6" fill="#C25431"/>
<circle cx="192.0" cy="227.6" r="1.6" fill="#C25431"/>
<circle cx="208.0" cy="226.6" r="1.6" fill="#C25431"/>
<circle cx="224.0" cy="229.3" r="1.6" fill="#C25431"/>
<circle cx="240.0" cy="229.1" r="1.6" fill="#C25431"/>
<circle cx="256.0" cy="231.3" r="1.6" fill="#C25431"/>
<circle cx="272.0" cy="231.3" r="1.6" fill="#C25431"/>
<circle cx="288.0" cy="232.5" r="1.6" fill="#C25431"/>
<circle cx="304.0" cy="234.0" r="1.6" fill="#C25431"/>
<circle cx="320.0" cy="237.5" r="1.6" fill="#C25431"/>
<circle cx="336.0" cy="234.5" r="1.6" fill="#C25431"/>
<circle cx="352.0" cy="233.3" r="1.6" fill="#C25431"/>
<circle cx="368.0" cy="235.5" r="1.6" fill="#C25431"/>
<circle cx="384.0" cy="232.3" r="1.6" fill="#C25431"/>
<circle cx="400.0" cy="229.8" r="1.6" fill="#C25431"/>
<circle cx="416.0" cy="230.8" r="1.6" fill="#C25431"/>
<circle cx="432.0" cy="234.5" r="1.6" fill="#C25431"/>
<circle cx="448.0" cy="239.5" r="1.6" fill="#C25431"/>
<circle cx="464.0" cy="234.8" r="1.6" fill="#C25431"/>
<circle cx="480.0" cy="237.7" r="1.6" fill="#C25431"/>
<circle cx="496.0" cy="236.2" r="1.6" fill="#C25431"/>
<circle cx="512.0" cy="237.2" r="1.6" fill="#C25431"/>
<circle cx="528.0" cy="236.5" r="1.6" fill="#C25431"/>
<circle cx="544.0" cy="240.9" r="1.6" fill="#C25431"/>
<circle cx="560.0" cy="233.5" r="1.6" fill="#C25431"/>
<line x1="574" y1="86" x2="594" y2="86" stroke="#C25431" stroke-width="2"/>
<text x="600" y="89.5" font-size="9">carry</text>
<path d="M64.0,132.6 L80.0,134.5 L96.0,133.5 L112.0,126.4 L128.0,130.8 L144.0,126.6 L160.0,116.8 L176.0,126.4 L192.0,113.8 L208.0,128.4 L224.0,121.4 L240.0,119.0 L256.0,118.5 L272.0,122.4 L288.0,119.5 L304.0,130.6 L320.0,130.6 L336.0,133.5 L352.0,118.5 L368.0,125.9 L384.0,136.8 L400.0,129.8 L416.0,126.1 L432.0,140.0 L448.0,128.4 L464.0,120.7 L480.0,118.7 L496.0,119.0 L512.0,120.2 L528.0,121.9 L544.0,131.1 L560.0,119.7" fill="none" stroke="#00806C" stroke-width="1.8" stroke-dasharray=""/>
<circle cx="64.0" cy="132.6" r="1.6" fill="#00806C"/>
<circle cx="80.0" cy="134.5" r="1.6" fill="#00806C"/>
<circle cx="96.0" cy="133.5" r="1.6" fill="#00806C"/>
<circle cx="112.0" cy="126.4" r="1.6" fill="#00806C"/>
<circle cx="128.0" cy="130.8" r="1.6" fill="#00806C"/>
<circle cx="144.0" cy="126.6" r="1.6" fill="#00806C"/>
<circle cx="160.0" cy="116.8" r="1.6" fill="#00806C"/>
<circle cx="176.0" cy="126.4" r="1.6" fill="#00806C"/>
<circle cx="192.0" cy="113.8" r="1.6" fill="#00806C"/>
<circle cx="208.0" cy="128.4" r="1.6" fill="#00806C"/>
<circle cx="224.0" cy="121.4" r="1.6" fill="#00806C"/>
<circle cx="240.0" cy="119.0" r="1.6" fill="#00806C"/>
<circle cx="256.0" cy="118.5" r="1.6" fill="#00806C"/>
<circle cx="272.0" cy="122.4" r="1.6" fill="#00806C"/>
<circle cx="288.0" cy="119.5" r="1.6" fill="#00806C"/>
<circle cx="304.0" cy="130.6" r="1.6" fill="#00806C"/>
<circle cx="320.0" cy="130.6" r="1.6" fill="#00806C"/>
<circle cx="336.0" cy="133.5" r="1.6" fill="#00806C"/>
<circle cx="352.0" cy="118.5" r="1.6" fill="#00806C"/>
<circle cx="368.0" cy="125.9" r="1.6" fill="#00806C"/>
<circle cx="384.0" cy="136.8" r="1.6" fill="#00806C"/>
<circle cx="400.0" cy="129.8" r="1.6" fill="#00806C"/>
<circle cx="416.0" cy="126.1" r="1.6" fill="#00806C"/>
<circle cx="432.0" cy="140.0" r="1.6" fill="#00806C"/>
<circle cx="448.0" cy="128.4" r="1.6" fill="#00806C"/>
<circle cx="464.0" cy="120.7" r="1.6" fill="#00806C"/>
<circle cx="480.0" cy="118.7" r="1.6" fill="#00806C"/>
<circle cx="496.0" cy="119.0" r="1.6" fill="#00806C"/>
<circle cx="512.0" cy="120.2" r="1.6" fill="#00806C"/>
<circle cx="528.0" cy="121.9" r="1.6" fill="#00806C"/>
<circle cx="544.0" cy="131.1" r="1.6" fill="#00806C"/>
<circle cx="560.0" cy="119.7" r="1.6" fill="#00806C"/>
<line x1="574" y1="102" x2="594" y2="102" stroke="#00806C" stroke-width="2"/>
<text x="600" y="105.5" font-size="9">spatial_gate</text>
<path d="M64.0,143.4 L80.0,138.5 L96.0,139.5 L112.0,130.1 L128.0,134.8 L144.0,125.6 L160.0,120.2 L176.0,128.9 L192.0,119.7 L208.0,138.2 L224.0,123.4 L240.0,126.1 L256.0,120.7 L272.0,126.9 L288.0,131.6 L304.0,134.0 L320.0,137.7 L336.0,131.1 L352.0,123.2 L368.0,131.6 L384.0,138.7 L400.0,133.1 L416.0,129.1 L432.0,142.9 L448.0,135.0 L464.0,131.3 L480.0,122.9 L496.0,125.4 L512.0,125.4 L528.0,129.3 L544.0,135.0 L560.0,122.4" fill="none" stroke="#D81B60" stroke-width="1.8" stroke-dasharray=""/>
<circle cx="64.0" cy="143.4" r="1.6" fill="#D81B60"/>
<circle cx="80.0" cy="138.5" r="1.6" fill="#D81B60"/>
<circle cx="96.0" cy="139.5" r="1.6" fill="#D81B60"/>
<circle cx="112.0" cy="130.1" r="1.6" fill="#D81B60"/>
<circle cx="128.0" cy="134.8" r="1.6" fill="#D81B60"/>
<circle cx="144.0" cy="125.6" r="1.6" fill="#D81B60"/>
<circle cx="160.0" cy="120.2" r="1.6" fill="#D81B60"/>
<circle cx="176.0" cy="128.9" r="1.6" fill="#D81B60"/>
<circle cx="192.0" cy="119.7" r="1.6" fill="#D81B60"/>
<circle cx="208.0" cy="138.2" r="1.6" fill="#D81B60"/>
<circle cx="224.0" cy="123.4" r="1.6" fill="#D81B60"/>
<circle cx="240.0" cy="126.1" r="1.6" fill="#D81B60"/>
<circle cx="256.0" cy="120.7" r="1.6" fill="#D81B60"/>
<circle cx="272.0" cy="126.9" r="1.6" fill="#D81B60"/>
<circle cx="288.0" cy="131.6" r="1.6" fill="#D81B60"/>
<circle cx="304.0" cy="134.0" r="1.6" fill="#D81B60"/>
<circle cx="320.0" cy="137.7" r="1.6" fill="#D81B60"/>
<circle cx="336.0" cy="131.1" r="1.6" fill="#D81B60"/>
<circle cx="352.0" cy="123.2" r="1.6" fill="#D81B60"/>
<circle cx="368.0" cy="131.6" r="1.6" fill="#D81B60"/>
<circle cx="384.0" cy="138.7" r="1.6" fill="#D81B60"/>
<circle cx="400.0" cy="133.1" r="1.6" fill="#D81B60"/>
<circle cx="416.0" cy="129.1" r="1.6" fill="#D81B60"/>
<circle cx="432.0" cy="142.9" r="1.6" fill="#D81B60"/>
<circle cx="448.0" cy="135.0" r="1.6" fill="#D81B60"/>
<circle cx="464.0" cy="131.3" r="1.6" fill="#D81B60"/>
<circle cx="480.0" cy="122.9" r="1.6" fill="#D81B60"/>
<circle cx="496.0" cy="125.4" r="1.6" fill="#D81B60"/>
<circle cx="512.0" cy="125.4" r="1.6" fill="#D81B60"/>
<circle cx="528.0" cy="129.3" r="1.6" fill="#D81B60"/>
<circle cx="544.0" cy="135.0" r="1.6" fill="#D81B60"/>
<circle cx="560.0" cy="122.4" r="1.6" fill="#D81B60"/>
<line x1="574" y1="118" x2="594" y2="118" stroke="#D81B60" stroke-width="2"/>
<text x="600" y="121.5" font-size="9">answer_only</text>
</svg>
